FILE "Candy Puzzle (1996)(Gevin)[CUBO].bin" BINARY
  TRACK 01 MODE1/2352
    INDEX 01 00:00:00
  TRACK 02 AUDIO
    PREGAP 00:02:00
    INDEX 01 36:18:34
  TRACK 03 AUDIO
    INDEX 01 38:05:36
  TRACK 04 AUDIO
    INDEX 01 38:50:15
